<?xml version="1.0" encoding="utf-8"?>
<svg viewBox="2.391 7.841 26.909 26.571" xmlns="http://www.w3.org/2000/svg" xmlns:bx="https://boxy-svg.com">
  <path style="stroke: rgb(0, 0, 0); fill: none; stroke-width: 2px;" d="M 14.17 12.583 C 22.107 12.583 27.068 21.137 23.1 27.978 C 19.132 34.821 9.211 34.822 5.243 27.979 C 4.188 26.162 3.719 24.067 3.898 21.976" transform="matrix(0, 1, -1, 0, 37.025444, 8.668305)"/>
  <path d="M 125.196 53.835 H 127.325 V 58.171 H 131.584 V 60.338 H 127.325 V 64.673 H 125.196 V 60.338 H 120.937 V 58.171 H 125.196 Z" style="" transform="matrix(0.999504, -0.03149, 0.03121, 0.999513, -104.621468, -41.500778)" bx:shape="cross 120.937 53.835 10.647 10.838 2.167 2.129 0.5 1@b82bd0b9"/>
  <circle style="fill: none;" cx="203.441" cy="132.685" r="2.752" transform="matrix(0, 0.485724, -0.483555, 0, 88.562164, -73.829155)"/>
  <path style="stroke: rgb(0, 0, 0); fill: none; stroke-width: 2px;" d="M 11.878 20.704 C 15.72 20.703 18.123 25.54 16.202 29.414 C 15.389 31.053 13.939 32.128 12.319 32.296" transform="matrix(0, 1, -1, 0, 40.877922, 12.12208)"/>
  <circle style="" cx="207.815" cy="133.854" r="3.637" transform="matrix(0.483555, 0, 0, 0.485724, -89.77919, -44.554771)"/>
  <circle style="" cx="222.298" cy="132.982" r="3.637" transform="matrix(0.483555, 0, 0, 0.485724, -89.77919, -44.554771)"/>
</svg>